<?xml version="1.0" ?><!DOCTYPE svg  PUBLIC '-//W3C//DTD SVG 1.1//EN'  'http://www.w3.org/Graphics/SVG/1.1/DTD/svg11.dtd'><svg enable-background="new 0 0 100 100" height="100px" id="Layer_1" version="1.1" viewBox="0 0 100 100" width="100px" xml:space="preserve" xmlns="http://www.w3.org/2000/svg" xmlns:xlink="http://www.w3.org/1999/xlink"><g><g><g><g><linearGradient gradientTransform="matrix(1.1444 1.1444 -1.1444 1.1444 -1028.1748 -1753.9004)" gradientUnits="userSpaceOnUse" id="SVGID_1_" x1="1254.8262" x2="1262.0605" y1="318.1328" y2="318.1328"><stop offset="0.0169" style="stop-color:#D5D5D6"/><stop offset="0.3333" style="stop-color:#F6F4F4"/><stop offset="0.5574" style="stop-color:#EAE8E9"/><stop offset="0.9645" style="stop-color:#C9CACC"/><stop offset="1" style="stop-color:#C6C7C9"/></linearGradient><polygon fill="url(#SVGID_1_)" points="33.14,73.685 25.202,65.63 62.988,27.278 70.924,35.335     "/><linearGradient gradientTransform="matrix(1.1444 1.1444 -1.1444 1.1444 -1028.7979 -1754.5254)" gradientUnits="userSpaceOnUse" id="SVGID_2_" x1="1260.0752" x2="1257.3047" y1="318.5068" y2="318.5068"><stop offset="0" style="stop-color:#F6F4F4"/><stop offset="0.336" style="stop-color:#EAE8E9"/><stop offset="0.9467" style="stop-color:#C9CACC"/><stop offset="1" style="stop-color:#C6C7C9"/></linearGradient><path d="M36.791,64.931c-0.817,0.829-2.145,0.829-2.964,0l0,0c-0.818-0.834-0.818-2.179,0-3.008      l24.662-25.031c0.821-0.831,2.146-0.831,2.963,0l0,0c0.817,0.832,0.817,2.178,0,3.01L36.791,64.931z" fill="url(#SVGID_2_)"/><linearGradient gradientTransform="matrix(1.1444 1.1444 -1.1444 1.1444 -1028.4858 -1754.2109)" gradientUnits="userSpaceOnUse" id="SVGID_3_" x1="1263.873" x2="1254.6669" y1="317.9961" y2="317.8759"><stop offset="0" style="stop-color:#F6F4F4"/><stop offset="0.336" style="stop-color:#EAE8E9"/><stop offset="0.9467" style="stop-color:#C9CACC"/><stop offset="1" style="stop-color:#C6C7C9"/></linearGradient><polygon fill="url(#SVGID_3_)" points="35.283,70.059 34.859,69.627 67.354,36.648 67.78,37.079     "/></g><g><radialGradient cx="5.1323" cy="-91.2881" fx="4.3587" fy="-90.4849" gradientTransform="matrix(-0.4129 -0.419 0.4129 -0.419 114.5576 -14.918)" gradientUnits="userSpaceOnUse" id="SVGID_4_" r="24.2436"><stop offset="0" style="stop-color:#F6F4F4"/><stop offset="0.336" style="stop-color:#EAE8E9"/><stop offset="0.9467" style="stop-color:#C9CACC"/><stop offset="1" style="stop-color:#C6C7C9"/></radialGradient><path d="M65.707,13.5c-5.264,5.348-5.264,14.016,0,19.364c5.27,5.343,13.806,5.343,19.071-0.003      c3.7-3.752,4.799-9.135,3.3-13.865l-6.373,6.471c-1.163,1.18-4.053,0.16-6.46-2.285c-2.405-2.44-3.415-5.379-2.252-6.56      l6.375-6.466C74.712,8.639,69.404,9.751,65.707,13.5z" fill="url(#SVGID_4_)"/><radialGradient cx="5.5396" cy="-91.2861" gradientTransform="matrix(-0.4129 -0.419 0.4129 -0.419 115.3818 -14.082)" gradientUnits="userSpaceOnUse" id="SVGID_5_" r="24.2442"><stop offset="0" style="stop-color:#D0D1D5"/><stop offset="1" style="stop-color:#9099A6"/></radialGradient><path d="M75.245,23.182c0.109,0.111,0.222,0.223,0.336,0.325c-2.172-2.368-3.041-5.089-1.932-6.215      l6.376-6.472c-0.339-0.113-0.31-0.586-0.657-0.663l-6.375,6.466C71.83,17.803,72.84,20.742,75.245,23.182z" fill="url(#SVGID_5_)"/><path d="M84.264,31.668c-5.154,5.232-13.543,5.232-18.696,0c-1.376-1.392-2.376-3.017-3.023-4.752      c0.603,2.106,1.717,4.094,3.351,5.753c5.155,5.237,13.547,5.237,18.698,0.002c3.41-3.46,4.661-8.459,3.346-13.151      c-0.021,0.023-0.046,0.05-0.078,0.08C88.712,23.964,87.414,28.475,84.264,31.668z" fill="#DFDEDE"/><radialGradient cx="4.9258" cy="-91.2891" fx="4.152" fy="-90.4856" gradientTransform="matrix(-0.4129 -0.419 0.4129 -0.419 114.1416 -15.3418)" gradientUnits="userSpaceOnUse" id="SVGID_6_" r="24.2497"><stop offset="0" style="stop-color:#FFFFFF"/><stop offset="0.3338" style="stop-color:#FDFDFD"/><stop offset="0.4989" style="stop-color:#F5F6F7"/><stop offset="0.6269" style="stop-color:#E8E9EB"/><stop offset="0.7359" style="stop-color:#D5D8DB"/><stop offset="0.8327" style="stop-color:#BDC1C6"/><stop offset="0.9197" style="stop-color:#A0A6AD"/><stop offset="1" style="stop-color:#7D858F"/></radialGradient><path d="M66.311,31.58c0.163,0.172,0.339,0.329,0.511,0.487c-4.264-4.845-4.101-12.301,0.479-16.947      c2.229-2.26,5.153-3.496,8.188-3.585c0.315-0.323,0.62-0.63,0.899-0.917c-3.678-0.462-7.387,0.768-10.073,3.497      C61.569,18.93,61.569,26.763,66.311,31.58z" fill="url(#SVGID_6_)"/><radialGradient cx="141.1172" cy="-64.7197" gradientTransform="matrix(-0.1836 -0.1863 0.1712 -0.1737 108.9635 41.752)" gradientUnits="userSpaceOnUse" id="SVGID_7_" r="14.1386"><stop offset="0" style="stop-color:#D0D1D5"/><stop offset="0.2138" style="stop-color:#AFB1B6"/><stop offset="0.5752" style="stop-color:#7C8087"/><stop offset="0.8485" style="stop-color:#5C6169"/><stop offset="1" style="stop-color:#50565E"/></radialGradient><path d="M68.087,23.799c0.835-0.85,2.242-0.797,3.137,0.11l3.337,3.389      c0.897,0.911,0.947,2.338,0.109,3.185l0,0c-0.835,0.853-2.242,0.799-3.137-0.111l-3.337-3.387      C67.3,26.075,67.249,24.649,68.087,23.799L68.087,23.799z" fill="url(#SVGID_7_)"/><radialGradient cx="-346.9409" cy="-108.6626" gradientTransform="matrix(0.4475 0.7838 -0.7722 -0.4541 142.3325 249.3184)" gradientUnits="userSpaceOnUse" id="SVGID_8_" r="6.7216"><stop offset="0" style="stop-color:#FFFFFF"/><stop offset="0.4944" style="stop-color:#F1EFF2"/><stop offset="1" style="stop-color:#E6E3E8"/></radialGradient><path d="M68.087,23.799c0.823-0.838,2.224-0.78,3.121,0.133l3.334,3.381      c0.899,0.912,0.954,2.331,0.128,3.17l0,0c-0.826,0.843-2.224,0.782-3.119-0.127l-3.336-3.386      C67.315,26.059,67.258,24.638,68.087,23.799L68.087,23.799z" fill="url(#SVGID_8_)"/></g><g><radialGradient cx="-338.1162" cy="-401.4224" fx="-338.8898" fy="-400.6191" gradientTransform="matrix(0.3991 0.405 -0.3991 0.405 -1.8555 376.5015)" gradientUnits="userSpaceOnUse" id="SVGID_9_" r="24.2433"><stop offset="0" style="stop-color:#F6F4F4"/><stop offset="0.336" style="stop-color:#EAE8E9"/><stop offset="0.9467" style="stop-color:#C9CACC"/><stop offset="1" style="stop-color:#C6C7C9"/></radialGradient><path d="M32.152,85.629c5.091-5.168,5.089-13.547,0-18.712c-5.092-5.168-13.347-5.166-18.438,0      c-3.573,3.625-4.636,8.834-3.191,13.402l6.161-6.254c1.125-1.141,3.924-0.156,6.248,2.206c2.325,2.359,3.303,5.202,2.183,6.343      l-6.168,6.255C23.448,90.33,28.58,89.255,32.152,85.629z" fill="url(#SVGID_9_)"/><radialGradient cx="-337.7075" cy="-401.4238" gradientTransform="matrix(0.3991 0.405 -0.3991 0.405 -2.6523 375.6914)" gradientUnits="userSpaceOnUse" id="SVGID_10_" r="24.2453"><stop offset="0" style="stop-color:#D0D1D5"/><stop offset="1" style="stop-color:#9099A6"/></radialGradient><path d="M22.932,76.271c-0.104-0.106-0.215-0.214-0.322-0.313c2.095,2.29,2.938,4.922,1.865,6.011      l-6.163,6.255c0.33,0.106,0.3,0.563,0.635,0.646l6.168-6.255C26.234,81.474,25.257,78.631,22.932,76.271z" fill="url(#SVGID_10_)"/><path d="M14.212,68.068c4.985-5.059,13.095-5.059,18.077,0c1.325,1.345,2.298,2.917,2.918,4.594      c-0.579-2.036-1.657-3.96-3.236-5.564c-4.981-5.056-13.094-5.056-18.075,0c-3.298,3.347-4.504,8.18-3.237,12.718      c0.021-0.022,0.049-0.046,0.076-0.079C9.913,75.517,11.165,71.152,14.212,68.068z" fill="#DFDEDE"/><radialGradient cx="-338.3203" cy="-401.4219" fx="-339.094" fy="-400.6186" gradientTransform="matrix(0.3991 0.405 -0.3991 0.405 -1.4551 376.9082)" gradientUnits="userSpaceOnUse" id="SVGID_11_" r="24.2462"><stop offset="0" style="stop-color:#FFFFFF"/><stop offset="0.3338" style="stop-color:#FDFDFD"/><stop offset="0.4989" style="stop-color:#F5F6F7"/><stop offset="0.6269" style="stop-color:#E8E9EB"/><stop offset="0.7359" style="stop-color:#D5D8DB"/><stop offset="0.8327" style="stop-color:#BDC1C6"/><stop offset="0.9197" style="stop-color:#A0A6AD"/><stop offset="1" style="stop-color:#7D858F"/></radialGradient><path d="M31.569,68.157c-0.157-0.17-0.326-0.323-0.493-0.472c4.119,4.682,3.966,11.889-0.462,16.385      c-2.151,2.184-4.984,3.37-7.918,3.466c-0.301,0.309-0.6,0.605-0.867,0.885c3.555,0.448,7.142-0.746,9.739-3.384      C36.154,80.38,36.154,72.812,31.569,68.157z" fill="url(#SVGID_11_)"/><radialGradient cx="-631.6797" cy="-813.2656" gradientTransform="matrix(0.1775 0.1802 -0.1654 0.1679 4.0551 322.9961)" gradientUnits="userSpaceOnUse" id="SVGID_12_" r="14.1463"><stop offset="0" style="stop-color:#D0D1D5"/><stop offset="0.2138" style="stop-color:#AFB1B6"/><stop offset="0.5752" style="stop-color:#7C8087"/><stop offset="0.8485" style="stop-color:#5C6169"/><stop offset="1" style="stop-color:#50565E"/></radialGradient><path d="M29.853,75.68c-0.809,0.817-2.168,0.766-3.035-0.111l-3.226-3.275      c-0.863-0.88-0.914-2.257-0.104-3.079l0,0c0.808-0.82,2.167-0.771,3.032,0.111l3.224,3.268      C30.612,73.476,30.662,74.854,29.853,75.68L29.853,75.68z" fill="url(#SVGID_12_)"/><radialGradient cx="165.2412" cy="170.9961" gradientTransform="matrix(-0.4327 -0.7576 0.7465 0.4391 -30.4407 124.3953)" gradientUnits="userSpaceOnUse" id="SVGID_13_" r="6.8059"><stop offset="0" style="stop-color:#FFFFFF"/><stop offset="0.4944" style="stop-color:#F1EFF2"/><stop offset="1" style="stop-color:#E6E3E8"/></radialGradient><path d="M29.853,75.68c-0.797,0.811-2.151,0.752-3.017-0.131l-3.228-3.268      c-0.866-0.885-0.92-2.257-0.12-3.067l0,0c0.794-0.813,2.15-0.758,3.019,0.123l3.224,3.276      C30.601,73.496,30.654,74.866,29.853,75.68L29.853,75.68z" fill="url(#SVGID_13_)"/></g></g><g><radialGradient cx="1196.3477" cy="273.5" gradientTransform="matrix(1.3408 1.3608 -1.3408 1.3608 -1213.1318 -1930.0098)" gradientUnits="userSpaceOnUse" id="SVGID_14_" r="4.7476"><stop offset="0" style="stop-color:#D9DCE2"/><stop offset="1" style="stop-color:#C7C9CB"/></radialGradient><path d="M69.728,27.768l-0.378-0.385l1.433-1.452c-0.27-0.007-0.526-0.077-0.778-0.197l0.349-0.354     c0.13,0.067,0.295,0.115,0.501,0.138c0.206,0.025,0.391,0,0.554-0.082l0.309,0.313L69.728,27.768z" fill="url(#SVGID_14_)"/><radialGradient cx="1196.3447" cy="273.4717" gradientTransform="matrix(1.3408 1.3608 -1.3408 1.3608 -1213.1318 -1930.0098)" gradientUnits="userSpaceOnUse" id="SVGID_15_" r="4.7435"><stop offset="0" style="stop-color:#D9DCE2"/><stop offset="1" style="stop-color:#C7C9CB"/></radialGradient><path d="M70.801,27.801l0.412,0.33c-0.08,0.106-0.124,0.206-0.119,0.312     c0.002,0.099,0.039,0.188,0.109,0.262c0.076,0.079,0.177,0.115,0.291,0.105c0.112-0.002,0.22-0.059,0.32-0.162     c0.094-0.097,0.148-0.198,0.153-0.311c0.005-0.108-0.029-0.201-0.103-0.276c-0.051-0.048-0.117-0.1-0.204-0.146l0.348-0.27     c0.101,0.106,0.199,0.166,0.305,0.172c0.099,0.003,0.189-0.028,0.268-0.109c0.068-0.068,0.101-0.144,0.101-0.223     c0-0.077-0.032-0.151-0.101-0.217c-0.066-0.069-0.142-0.102-0.233-0.102c-0.087,0-0.184,0.037-0.281,0.117l-0.291-0.415     c0.146-0.1,0.279-0.162,0.4-0.181c0.119-0.025,0.247-0.012,0.373,0.036c0.133,0.045,0.25,0.126,0.357,0.235     c0.188,0.186,0.276,0.398,0.272,0.637c-0.007,0.192-0.069,0.351-0.19,0.474c-0.174,0.177-0.409,0.221-0.698,0.13     c0.085,0.142,0.119,0.29,0.101,0.446c-0.016,0.148-0.084,0.289-0.205,0.412c-0.172,0.175-0.385,0.259-0.635,0.256     c-0.247-0.002-0.467-0.102-0.656-0.294c-0.179-0.181-0.277-0.379-0.291-0.604C70.588,28.195,70.656,27.989,70.801,27.801z" fill="url(#SVGID_15_)"/></g><g><radialGradient cx="1196.3467" cy="273.4902" gradientTransform="matrix(1.3408 1.3608 -1.3408 1.3608 -1213.1318 -1930.0098)" gradientUnits="userSpaceOnUse" id="SVGID_16_" r="4.7454"><stop offset="0" style="stop-color:#D9DCE2"/><stop offset="1" style="stop-color:#C7C9CB"/></radialGradient><path d="M28.124,72.057l0.378,0.378l-1.428,1.452c0.266,0.007,0.523,0.076,0.775,0.204l-0.343,0.351     c-0.134-0.069-0.303-0.116-0.509-0.142c-0.201-0.025-0.389,0-0.551,0.081l-0.307-0.313L28.124,72.057z" fill="url(#SVGID_16_)"/><radialGradient cx="1196.3457" cy="273.4912" gradientTransform="matrix(1.3408 1.3608 -1.3408 1.3608 -1213.1318 -1930.0098)" gradientUnits="userSpaceOnUse" id="SVGID_17_" r="4.7447"><stop offset="0" style="stop-color:#D9DCE2"/><stop offset="1" style="stop-color:#C7C9CB"/></radialGradient><path d="M27.05,71.982l-0.415-0.344c0.078-0.098,0.108-0.195,0.105-0.3c0-0.109-0.042-0.193-0.107-0.265     c-0.08-0.082-0.179-0.114-0.298-0.103c-0.119,0.005-0.245,0.076-0.375,0.209c-0.124,0.123-0.188,0.244-0.192,0.36     c-0.006,0.12,0.034,0.223,0.119,0.309c0.11,0.111,0.257,0.162,0.439,0.153l0.261,0.353l-1.223,0.851l-1.004-1.015l0.352-0.362     l0.719,0.727l0.394-0.283c-0.123-0.04-0.23-0.104-0.317-0.195c-0.167-0.17-0.251-0.379-0.243-0.622     c0.003-0.239,0.104-0.463,0.299-0.662c0.165-0.163,0.357-0.263,0.58-0.295c0.305-0.047,0.57,0.044,0.799,0.276     c0.181,0.186,0.281,0.383,0.295,0.599C27.255,71.587,27.193,71.794,27.05,71.982z" fill="url(#SVGID_17_)"/></g></g><g><g><g><linearGradient gradientTransform="matrix(1.1444 -1.1444 -1.1444 -1.1444 -1028.1748 1902.9004)" gradientUnits="userSpaceOnUse" id="SVGID_18_" x1="1277.1855" x2="1284.4189" y1="339.4668" y2="339.4668"><stop offset="0.0169" style="stop-color:#D5D5D6"/><stop offset="0.3333" style="stop-color:#F6F4F4"/><stop offset="0.5574" style="stop-color:#EAE8E9"/><stop offset="0.9645" style="stop-color:#C9CACC"/><stop offset="1" style="stop-color:#C6C7C9"/></linearGradient><polygon fill="url(#SVGID_18_)" points="34.311,25.314 26.374,33.369 64.16,71.721 72.096,63.664     "/><linearGradient gradientTransform="matrix(1.1444 -1.1444 -1.1444 -1.1444 -1028.7979 1903.5254)" gradientUnits="userSpaceOnUse" id="SVGID_19_" x1="1282.4326" x2="1279.6621" y1="339.8408" y2="339.8408"><stop offset="0" style="stop-color:#F6F4F4"/><stop offset="0.336" style="stop-color:#EAE8E9"/><stop offset="0.9467" style="stop-color:#C9CACC"/><stop offset="1" style="stop-color:#C6C7C9"/></linearGradient><path d="M37.962,34.068c-0.816-0.829-2.144-0.829-2.963,0l0,0c-0.818,0.834-0.818,2.179,0,3.008      l24.662,25.031c0.821,0.831,2.146,0.831,2.963,0l0,0c0.817-0.832,0.817-2.178,0-3.01L37.962,34.068z" fill="url(#SVGID_19_)"/><linearGradient gradientTransform="matrix(1.1444 -1.1444 -1.1444 -1.1444 -1028.4863 1903.2109)" gradientUnits="userSpaceOnUse" id="SVGID_20_" x1="1286.2305" x2="1277.0243" y1="339.3301" y2="339.2099"><stop offset="0" style="stop-color:#F6F4F4"/><stop offset="0.336" style="stop-color:#EAE8E9"/><stop offset="0.9467" style="stop-color:#C9CACC"/><stop offset="1" style="stop-color:#C6C7C9"/></linearGradient><polygon fill="url(#SVGID_20_)" points="36.455,28.94 36.031,29.372 68.526,62.351 68.951,61.92     "/></g><g><radialGradient cx="-55.9438" cy="-149.5298" fx="-56.7175" fy="-148.7265" gradientTransform="matrix(-0.4129 0.419 0.4129 0.419 114.5576 163.9185)" gradientUnits="userSpaceOnUse" id="SVGID_21_" r="24.2451"><stop offset="0" style="stop-color:#F6F4F4"/><stop offset="0.336" style="stop-color:#EAE8E9"/><stop offset="0.9467" style="stop-color:#C9CACC"/><stop offset="1" style="stop-color:#C6C7C9"/></radialGradient><path d="M66.878,85.499c-5.263-5.348-5.263-14.016,0-19.364c5.271-5.343,13.807-5.343,19.072,0.003      c3.7,3.752,4.799,9.135,3.3,13.865l-6.373-6.471c-1.163-1.18-4.053-0.16-6.461,2.285c-2.404,2.44-3.414,5.379-2.251,6.561      l6.375,6.466C75.883,90.361,70.576,89.247,66.878,85.499z" fill="url(#SVGID_21_)"/><radialGradient cx="-55.541" cy="-149.5283" gradientTransform="matrix(-0.4129 0.419 0.4129 0.419 115.3818 163.082)" gradientUnits="userSpaceOnUse" id="SVGID_22_" r="24.246"><stop offset="0" style="stop-color:#D0D1D5"/><stop offset="1" style="stop-color:#9099A6"/></radialGradient><path d="M76.416,75.817c0.11-0.111,0.223-0.223,0.337-0.325c-2.172,2.368-3.041,5.09-1.932,6.217      l6.376,6.472c-0.339,0.112-0.31,0.586-0.657,0.663l-6.375-6.466C73.002,81.196,74.012,78.258,76.416,75.817z" fill="url(#SVGID_22_)"/><path d="M85.435,67.331c-5.153-5.232-13.542-5.232-18.696,0c-1.375,1.392-2.375,3.017-3.022,4.752      c0.602-2.106,1.716-4.094,3.351-5.753c5.155-5.237,13.547-5.237,18.698-0.002c3.409,3.46,4.661,8.459,3.346,13.152      c-0.021-0.023-0.046-0.05-0.078-0.08C89.884,75.035,88.586,70.524,85.435,67.331z" fill="#DFDEDE"/><radialGradient cx="-56.1523" cy="-149.5308" fx="-56.9262" fy="-148.7273" gradientTransform="matrix(-0.4129 0.419 0.4129 0.419 114.1416 164.3408)" gradientUnits="userSpaceOnUse" id="SVGID_23_" r="24.25"><stop offset="0" style="stop-color:#FFFFFF"/><stop offset="0.3338" style="stop-color:#FDFDFD"/><stop offset="0.4989" style="stop-color:#F5F6F7"/><stop offset="0.6269" style="stop-color:#E8E9EB"/><stop offset="0.7359" style="stop-color:#D5D8DB"/><stop offset="0.8327" style="stop-color:#BDC1C6"/><stop offset="0.9197" style="stop-color:#A0A6AD"/><stop offset="1" style="stop-color:#7D858F"/></radialGradient><path d="M67.482,67.419c0.162-0.172,0.339-0.329,0.511-0.487c-4.264,4.845-4.102,12.301,0.478,16.947      c2.229,2.26,5.154,3.495,8.188,3.585c0.315,0.322,0.62,0.631,0.899,0.917c-3.678,0.463-7.388-0.768-10.074-3.496      C62.741,80.07,62.741,72.236,67.482,67.419z" fill="url(#SVGID_23_)"/><radialGradient cx="3.7573" cy="-205.2041" gradientTransform="matrix(-0.1836 0.1863 0.1712 0.1737 108.9635 107.2485)" gradientUnits="userSpaceOnUse" id="SVGID_24_" r="14.1404"><stop offset="0" style="stop-color:#D0D1D5"/><stop offset="0.2138" style="stop-color:#AFB1B6"/><stop offset="0.5752" style="stop-color:#7C8087"/><stop offset="0.8485" style="stop-color:#5C6169"/><stop offset="1" style="stop-color:#50565E"/></radialGradient><path d="M69.258,75.2c0.836,0.85,2.243,0.796,3.138-0.11l3.337-3.39      c0.896-0.911,0.947-2.338,0.109-3.185l0,0c-0.835-0.853-2.242-0.799-3.137,0.111l-3.337,3.387      C68.471,72.924,68.421,74.35,69.258,75.2L69.258,75.2z" fill="url(#SVGID_24_)"/><radialGradient cx="-252.2236" cy="-55.2969" gradientTransform="matrix(0.4475 -0.7838 -0.7722 0.4541 142.3325 -100.3184)" gradientUnits="userSpaceOnUse" id="SVGID_25_" r="6.7213"><stop offset="0" style="stop-color:#FFFFFF"/><stop offset="0.4944" style="stop-color:#F1EFF2"/><stop offset="1" style="stop-color:#E6E3E8"/></radialGradient><path d="M69.258,75.2c0.824,0.838,2.225,0.78,3.122-0.134l3.334-3.381      c0.899-0.912,0.954-2.331,0.128-3.17l0,0c-0.826-0.843-2.224-0.783-3.119,0.127l-3.336,3.386      C68.487,72.94,68.43,74.361,69.258,75.2L69.258,75.2z" fill="url(#SVGID_25_)"/></g><g><radialGradient cx="-274.9204" cy="-341.1606" fx="-275.694" fy="-340.3575" gradientTransform="matrix(0.3991 -0.405 -0.3991 -0.405 -1.8555 -227.501)" gradientUnits="userSpaceOnUse" id="SVGID_26_" r="24.2427"><stop offset="0" style="stop-color:#F6F4F4"/><stop offset="0.336" style="stop-color:#EAE8E9"/><stop offset="0.9467" style="stop-color:#C9CACC"/><stop offset="1" style="stop-color:#C6C7C9"/></radialGradient><path d="M33.323,13.371c5.092,5.167,5.09,13.546,0,18.711c-5.091,5.168-13.346,5.166-18.438,0      c-3.573-3.625-4.636-8.834-3.192-13.402l6.162,6.254c1.124,1.141,3.923,0.156,6.248-2.206c2.325-2.359,3.303-5.202,2.182-6.342      l-6.167-6.254C24.62,8.67,29.751,9.745,33.323,13.371z" fill="url(#SVGID_26_)"/><radialGradient cx="-274.5161" cy="-341.1621" gradientTransform="matrix(0.3991 -0.405 -0.3991 -0.405 -2.6514 -226.6914)" gradientUnits="userSpaceOnUse" id="SVGID_27_" r="24.2425"><stop offset="0" style="stop-color:#D0D1D5"/><stop offset="1" style="stop-color:#9099A6"/></radialGradient><path d="M24.104,22.728c-0.105,0.106-0.215,0.213-0.322,0.313c2.095-2.29,2.937-4.921,1.865-6.01      l-6.163-6.254c0.329-0.107,0.3-0.564,0.635-0.646l6.167,6.254C27.406,17.525,26.429,20.368,24.104,22.728z" fill="url(#SVGID_27_)"/><path d="M15.384,30.931c4.985,5.059,13.094,5.059,18.077,0c1.325-1.345,2.298-2.917,2.918-4.594      c-0.579,2.036-1.657,3.96-3.236,5.564c-4.981,5.056-13.094,5.056-18.076,0c-3.297-3.347-4.503-8.18-3.236-12.718      c0.021,0.023,0.049,0.047,0.076,0.079C11.085,23.482,12.337,27.846,15.384,30.931z" fill="#DFDEDE"/><radialGradient cx="-275.125" cy="-341.1602" fx="-275.8987" fy="-340.3569" gradientTransform="matrix(0.3991 -0.405 -0.3991 -0.405 -1.4541 -227.9072)" gradientUnits="userSpaceOnUse" id="SVGID_28_" r="24.2451"><stop offset="0" style="stop-color:#FFFFFF"/><stop offset="0.3338" style="stop-color:#FDFDFD"/><stop offset="0.4989" style="stop-color:#F5F6F7"/><stop offset="0.6269" style="stop-color:#E8E9EB"/><stop offset="0.7359" style="stop-color:#D5D8DB"/><stop offset="0.8327" style="stop-color:#BDC1C6"/><stop offset="0.9197" style="stop-color:#A0A6AD"/><stop offset="1" style="stop-color:#7D858F"/></radialGradient><path d="M32.741,30.842c-0.158,0.17-0.326,0.323-0.493,0.472c4.119-4.682,3.966-11.888-0.462-16.384      c-2.151-2.184-4.984-3.37-7.918-3.465c-0.301-0.309-0.6-0.606-0.867-0.885c3.555-0.448,7.142,0.745,9.739,3.384      C37.326,18.62,37.326,26.188,32.741,30.842z" fill="url(#SVGID_28_)"/><radialGradient cx="-489.6055" cy="-667.9121" gradientTransform="matrix(0.1775 -0.1802 -0.1654 -0.1679 4.0551 -173.9961)" gradientUnits="userSpaceOnUse" id="SVGID_29_" r="14.1463"><stop offset="0" style="stop-color:#D0D1D5"/><stop offset="0.2138" style="stop-color:#AFB1B6"/><stop offset="0.5752" style="stop-color:#7C8087"/><stop offset="0.8485" style="stop-color:#5C6169"/><stop offset="1" style="stop-color:#50565E"/></radialGradient><path d="M31.023,23.32c-0.808-0.818-2.167-0.767-3.034,0.111l-3.226,3.275      c-0.863,0.88-0.914,2.257-0.104,3.079l0,0c0.808,0.82,2.167,0.771,3.031-0.111l3.225-3.268      C31.783,25.523,31.834,24.144,31.023,23.32L31.023,23.32z" fill="url(#SVGID_29_)"/><radialGradient cx="67.2148" cy="115.7402" gradientTransform="matrix(-0.4327 0.7576 0.7465 -0.4391 -30.4397 24.6047)" gradientUnits="userSpaceOnUse" id="SVGID_30_" r="6.8053"><stop offset="0" style="stop-color:#FFFFFF"/><stop offset="0.4944" style="stop-color:#F1EFF2"/><stop offset="1" style="stop-color:#E6E3E8"/></radialGradient><path d="M31.023,23.32c-0.796-0.811-2.15-0.753-3.016,0.13l-3.228,3.268      c-0.866,0.885-0.92,2.257-0.12,3.067l0,0c0.794,0.813,2.15,0.758,3.018-0.123l3.225-3.276      C31.772,25.503,31.826,24.132,31.023,23.32L31.023,23.32z" fill="url(#SVGID_30_)"/></g></g><g><radialGradient cx="1215.1553" cy="291.4355" gradientTransform="matrix(1.3408 -1.3608 -1.3408 -1.3608 -1213.1309 2079.0098)" gradientUnits="userSpaceOnUse" id="SVGID_31_" r="4.7476"><stop offset="0" style="stop-color:#D9DCE2"/><stop offset="1" style="stop-color:#C7C9CB"/></radialGradient><path d="M72.888,73.249l-0.309,0.313c-0.163-0.081-0.349-0.107-0.554-0.081     c-0.206,0.022-0.371,0.07-0.502,0.138l-0.348-0.354c0.252-0.12,0.508-0.19,0.778-0.197l-1.433-1.451l0.378-0.385L72.888,73.249z" fill="url(#SVGID_31_)"/><radialGradient cx="1215.1523" cy="291.4287" gradientTransform="matrix(1.3408 -1.3608 -1.3408 -1.3608 -1213.1309 2079.0098)" gradientUnits="userSpaceOnUse" id="SVGID_32_" r="4.7466"><stop offset="0" style="stop-color:#D9DCE2"/><stop offset="1" style="stop-color:#C7C9CB"/></radialGradient><path d="M71.775,70.583c0.014-0.226,0.112-0.424,0.291-0.604c0.189-0.192,0.409-0.292,0.656-0.294     c0.25-0.003,0.463,0.08,0.634,0.256c0.122,0.123,0.19,0.264,0.206,0.412c0.019,0.155-0.016,0.305-0.101,0.446     c0.288-0.091,0.524-0.047,0.698,0.13c0.121,0.123,0.183,0.281,0.189,0.474c0.005,0.238-0.084,0.451-0.271,0.637     c-0.108,0.109-0.225,0.19-0.357,0.235c-0.126,0.048-0.254,0.062-0.373,0.036c-0.121-0.019-0.254-0.081-0.4-0.181l0.291-0.415     c0.098,0.08,0.194,0.117,0.281,0.117c0.092,0,0.167-0.032,0.233-0.103c0.068-0.064,0.101-0.139,0.101-0.216     c0-0.079-0.032-0.154-0.101-0.223c-0.078-0.081-0.17-0.112-0.268-0.109c-0.105,0.006-0.204,0.065-0.305,0.172l-0.348-0.27     c0.087-0.046,0.153-0.098,0.203-0.146c0.073-0.074,0.107-0.167,0.104-0.276c-0.005-0.111-0.06-0.213-0.153-0.31     c-0.101-0.104-0.208-0.16-0.32-0.163c-0.114-0.009-0.216,0.027-0.291,0.106c-0.071,0.074-0.107,0.163-0.109,0.262     c-0.005,0.104,0.038,0.205,0.118,0.312l-0.411,0.33C71.828,71.01,71.76,70.804,71.775,70.583z" fill="url(#SVGID_32_)"/></g><g><radialGradient cx="1215.1504" cy="291.4258" gradientTransform="matrix(1.3408 -1.3608 -1.3408 -1.3608 -1213.1309 2079.0098)" gradientUnits="userSpaceOnUse" id="SVGID_33_" r="4.7533"><stop offset="0" style="stop-color:#D9DCE2"/><stop offset="1" style="stop-color:#C7C9CB"/></radialGradient><path d="M27.312,24.932l0.307-0.314c0.163,0.082,0.351,0.107,0.552,0.082     c0.206-0.025,0.374-0.072,0.508-0.142l0.344,0.351c-0.252,0.128-0.511,0.197-0.775,0.205l1.428,1.452l-0.378,0.378L27.312,24.932     z" fill="url(#SVGID_33_)"/><radialGradient cx="1215.1563" cy="291.4268" gradientTransform="matrix(1.3408 -1.3608 -1.3408 -1.3608 -1213.1309 2079.0098)" gradientUnits="userSpaceOnUse" id="SVGID_34_" r="4.74"><stop offset="0" style="stop-color:#D9DCE2"/><stop offset="1" style="stop-color:#C7C9CB"/></radialGradient><path d="M28.408,27.626c-0.014,0.216-0.114,0.413-0.295,0.599c-0.229,0.232-0.495,0.323-0.799,0.276     c-0.224-0.032-0.416-0.132-0.58-0.295c-0.196-0.199-0.297-0.423-0.299-0.662c-0.008-0.243,0.075-0.452,0.242-0.622     c0.087-0.091,0.195-0.155,0.318-0.195l-0.394-0.283l-0.719,0.727l-0.353-0.362l1.005-1.015l1.222,0.851l-0.261,0.353     c-0.182-0.009-0.328,0.042-0.439,0.153c-0.084,0.086-0.124,0.188-0.118,0.309c0.004,0.116,0.068,0.237,0.191,0.36     c0.131,0.133,0.257,0.204,0.376,0.209c0.118,0.012,0.217-0.021,0.297-0.103c0.066-0.071,0.107-0.155,0.107-0.265     c0.004-0.104-0.027-0.202-0.104-0.3l0.415-0.344C28.364,27.205,28.427,27.412,28.408,27.626z" fill="url(#SVGID_34_)"/></g></g></g></svg>